<svg xmlns="http://www.w3.org/2000/svg" viewBox="0 0 32 32">
  <rect width="32" height="32" rx="6" fill="#8b5cf6"/>
  <g fill="white">
    <!-- QR code pattern -->
    <rect x="6" y="6" width="4" height="4"/>
    <rect x="12" y="6" width="4" height="4"/>
    <rect x="18" y="6" width="4" height="4"/>
    <rect x="22" y="6" width="4" height="4"/>
    <rect x="26" y="6" width="4" height="4"/>
    
    <rect x="6" y="10" width="4" height="4"/>
    <rect x="18" y="10" width="4" height="4"/>
    <rect x="26" y="10" width="4" height="4"/>
    
    <rect x="6" y="14" width="4" height="4"/>
    <rect x="12" y="14" width="4" height="4"/>
    <rect x="18" y="14" width="4" height="4"/>
    <rect x="22" y="14" width="4" height="4"/>
    <rect x="26" y="14" width="4" height="4"/>
    
    <rect x="6" y="18" width="4" height="4"/>
    <rect x="26" y="18" width="4" height="4"/>
    
    <rect x="6" y="22" width="4" height="4"/>
    <rect x="12" y="22" width="4" height="4"/>
    <rect x="18" y="22" width="4" height="4"/>
    <rect x="22" y="22" width="4" height="4"/>
    <rect x="26" y="22" width="4" height="4"/>
  </g>
</svg>